HIERARCHY
ROOT Joint1
{
	OFFSET 0.000000 0.000000 0.000000
	CHANNELS 6 Xposition Yposition Zposition Xrotation Yrotation Zrotation
	JOINT Joint2
	{
		OFFSET -0.000000 0.000000 1.456275
		CHANNELS 6 Xposition Yposition Zposition Xrotation Yrotation Zrotation
		JOINT Joint3
		{
			OFFSET -0.000000 0.000002 1.471446
			CHANNELS 6 Xposition Yposition Zposition Xrotation Yrotation Zrotation
			JOINT Joint4
			{
				OFFSET 0.625745 0.000000 0.917755
				CHANNELS 6 Xposition Yposition Zposition Xrotation Yrotation Zrotation
				JOINT Joint5
				{
					OFFSET -0.629534 0.000001 0.940221
					CHANNELS 6 Xposition Yposition Zposition Xrotation Yrotation Zrotation
					JOINT Joint6
					{
						OFFSET -0.000001 0.113772 1.960660
						CHANNELS 6 Xposition Yposition Zposition Xrotation Yrotation Zrotation
						JOINT Joint7
						{
							OFFSET -0.669733 -0.113771 0.388340
							CHANNELS 6 Xposition Yposition Zposition Xrotation Yrotation Zrotation
							End Site
							{
								OFFSET 0.005509 0.005509 0.438980
							}
						}
					}
				}
			}
		}
	}
}
MOTION
Frames: 19
Frame Time: 0.041667
0.000000 0.000000 0.000000 -0.000000 1.019410 99.527174 -0.000000 -0.000000 1.456275 0.000004 87.016391 0.000011 -0.000000 0.000002 1.471446 -0.000005 -1.133464 -108.771767 0.625744 0.000000 0.917755 -0.000001 107.740558 -0.000010 -0.629533 0.000001 0.940221 -0.000000 1.709735 111.214836 -0.000001 0.113772 1.960661 -88.303889 56.336152 -0.000002 -0.669733 -0.113771 0.388340 -1.425754 3.268335 -179.975512 
0.000000 0.000000 0.000000 -0.000000 1.019410 99.460689 -0.000000 0.000000 1.456275 0.000004 86.928214 0.000016 -0.000000 0.000002 1.471446 -0.000006 -1.133465 -108.699114 0.625745 0.000001 0.917755 0.000001 107.758781 0.000000 -0.629534 0.000001 0.940221 -0.000001 1.709736 111.140544 -0.000001 0.113772 1.960661 -88.303889 56.358633 -0.000001 -0.669733 -0.113771 0.388341 -1.425380 3.268707 -180.005606 
0.000000 0.000000 0.000000 -0.000000 1.019410 99.349200 -0.000000 0.000000 1.456275 0.000007 86.780361 0.000002 -0.000000 0.000002 1.471446 -0.000007 -1.133465 -108.577325 0.625744 0.000000 0.917755 0.000001 107.789339 -0.000001 -0.629534 0.000001 0.940221 -0.000000 1.709735 111.015948 -0.000001 0.113772 1.960660 -88.303896 56.396315 -0.000002 -0.669733 -0.113771 0.388340 -1.424745 3.269339 -180.056067 
0.000000 0.000000 0.000000 -0.000000 1.019410 99.192174 -0.000000 0.000000 1.456275 0.000008 86.572101 0.000004 -0.000000 0.000002 1.471446 -0.000007 -1.133465 -108.405771 0.625745 0.000000 0.917755 0.000003 107.832377 -0.000004 -0.629534 0.000001 0.940221 0.000001 1.709735 110.840467 -0.000001 0.113773 1.960661 -88.303889 56.449400 -0.000008 -0.669733 -0.113770 0.388340 -1.423852 3.270228 -180.127128 
0.000000 0.000000 0.000000 -0.000000 1.019410 98.989057 -0.000000 0.000000 1.456275 0.000004 86.302732 -0.000015 -0.000000 0.000002 1.471446 -0.000006 -1.133466 -108.183865 0.625745 0.000000 0.917755 0.000007 107.888043 -0.000010 -0.629534 0.000001 0.940221 0.000001 1.709737 110.613472 -0.000001 0.113772 1.960661 -88.303889 56.518053 -0.000002 -0.669733 -0.113771 0.388341 -1.422692 3.271378 -180.219063 
0.000000 0.000000 0.000000 -0.000000 1.019410 98.739305 -0.000000 0.000000 1.456275 -0.000007 85.971509 0.000001 -0.000000 0.000002 1.471446 -0.000005 -1.133464 -107.911012 0.625744 0.000000 0.917755 0.000011 107.956488 -0.000004 -0.629534 0.000001 0.940221 -0.000001 1.709737 110.334377 -0.000001 0.113772 1.960661 -88.303882 56.602481 0.000001 -0.669733 -0.113771 0.388340 -1.421268 3.272789 -180.332089 
0.000000 0.000000 0.000000 -0.000000 1.019410 98.442369 -0.000000 0.000000 1.456275 0.000005 85.577721 -0.000009 -0.000000 0.000002 1.471446 -0.000006 -1.133466 -107.586613 0.625744 0.000000 0.917755 0.000013 108.037870 -0.000005 -0.629533 0.000001 0.940221 -0.000001 1.709736 110.002539 -0.000001 0.113772 1.960661 -88.303889 56.702854 -0.000004 -0.669733 -0.113771 0.388340 -1.419568 3.274464 -180.466480 
0.000000 0.000000 0.000000 -0.000000 1.019410 98.097711 -0.000000 0.000000 1.456275 0.000003 85.120625 -0.000003 -0.000000 0.000002 1.471446 -0.000007 -1.133465 -107.210071 0.625745 0.000000 0.917755 0.000011 108.132324 -0.000005 -0.629534 0.000001 0.940221 0.000000 1.709735 109.617378 -0.000001 0.113772 1.960661 -88.303889 56.819353 -0.000001 -0.669733 -0.113771 0.388340 -1.417586 3.276401 -180.622454 
0.000000 0.000000 0.000000 -0.000000 1.019410 97.704784 -0.000000 0.000000 1.456275 -0.000004 84.599515 -0.000001 -0.000000 0.000002 1.471446 -0.000006 -1.133465 -106.780787 0.625744 0.000000 0.917755 0.000005 108.240009 -0.000007 -0.629534 0.000001 0.940220 -0.000001 1.709735 109.178258 -0.000001 0.113772 1.960661 -88.303889 56.952177 -0.000001 -0.669733 -0.113771 0.388340 -1.415328 3.278603 -180.800298 
0.000000 0.000000 0.000000 -0.000000 1.019410 97.263028 -0.000000 0.000000 1.456275 0.000004 84.013663 0.000009 -0.000000 0.000002 1.471446 -0.000006 -1.133466 -106.298173 0.625744 0.000000 0.917755 0.000001 108.361081 -0.000002 -0.629534 0.000001 0.940221 0.000001 1.709736 108.684586 -0.000001 0.113772 1.960661 -88.303889 57.101505 -0.000004 -0.669733 -0.113771 0.388340 -1.412776 3.281072 -181.000218 
0.000000 0.000000 0.000000 -0.000000 1.019410 96.771910 -0.000000 -0.000000 1.456275 -0.000000 83.362336 -0.000002 -0.000000 0.000002 1.471445 -0.000006 -1.133464 -105.761620 0.625745 0.000000 0.917755 0.000002 108.495677 -0.000009 -0.629533 0.000001 0.940221 0.000001 1.709736 108.135746 -0.000001 0.113772 1.960660 -88.303889 57.267513 -0.000001 -0.669733 -0.113771 0.388340 -1.409932 3.283805 -181.222486 
0.000000 0.000000 0.000000 -0.000000 1.019410 96.230870 -0.000000 0.000000 1.456275 0.000001 82.644818 0.000001 -0.000000 0.000002 1.471446 -0.000007 -1.133465 -105.170549 0.625744 0.000000 0.917755 0.000009 108.643953 -0.000003 -0.629534 0.000001 0.940221 -0.000002 1.709735 107.531124 -0.000001 0.113772 1.960660 -88.303889 57.450401 -0.000002 -0.669733 -0.113771 0.388340 -1.406786 3.286799 -181.467362 
0.000000 0.000000 0.000000 -0.000000 1.019410 95.640619 -0.000000 0.000000 1.456275 -0.000002 81.862017 -0.000001 -0.000000 0.000002 1.471446 -0.000007 -1.133466 -104.525698 0.625744 0.000000 0.917755 0.000002 108.805706 -0.000005 -0.629534 0.000001 0.940221 -0.000001 1.709736 106.871499 -0.000001 0.113772 1.960660 -88.303896 57.649925 -0.000001 -0.669733 -0.113771 0.388340 -1.403336 3.290055 -181.734504 
0.000000 0.000000 0.000000 -0.000000 1.019410 95.006770 -0.000000 0.000000 1.456275 0.000002 81.021418 0.000004 -0.000000 0.000002 1.471446 -0.000007 -1.133464 -103.833226 0.625744 0.000000 0.917755 0.000004 108.979425 -0.000005 -0.629533 0.000001 0.940221 -0.000002 1.709736 106.163153 -0.000001 0.113772 1.960661 -88.303889 57.864181 -0.000000 -0.669733 -0.113771 0.388340 -1.399620 3.293536 -182.021359 
0.000000 0.000000 0.000000 -0.000000 1.019410 94.336230 -0.000000 -0.000000 1.456275 -0.000005 80.132135 0.000000 -0.000000 0.000002 1.471446 -0.000007 -1.133464 -103.100661 0.625745 0.000000 0.917756 0.000008 109.163198 -0.000008 -0.629534 0.000001 0.940221 -0.000002 1.709736 105.413800 -0.000001 0.113772 1.960660 -88.303896 58.090841 -0.000002 -0.669733 -0.113771 0.388340 -1.395664 3.297194 -182.324865 
0.000000 0.000000 0.000000 -0.000000 1.019410 93.635849 -0.000000 0.000000 1.456275 0.000000 79.203297 0.000001 -0.000000 0.000002 1.471446 -0.000006 -1.133464 -102.335488 0.625745 0.000001 0.917755 0.000007 109.355147 -0.000005 -0.629533 0.000001 0.940220 0.000000 1.709735 104.631101 -0.000001 0.113772 1.960661 -88.303896 58.327596 -0.000002 -0.669733 -0.113771 0.388340 -1.391513 3.300991 -182.641854 
0.000000 0.000000 0.000000 -0.000000 1.019410 92.912518 -0.000000 0.000000 1.456275 0.000001 78.244011 0.000000 -0.000000 0.000002 1.471446 -0.000007 -1.133465 -101.545256 0.625744 0.000001 0.917755 0.000009 109.553379 -0.000001 -0.629534 0.000001 0.940220 -0.000001 1.709736 103.822762 -0.000001 0.113772 1.960661 -88.303889 58.572096 -0.000005 -0.669733 -0.113771 0.388340 -1.387206 3.304889 -182.969225 
0.000000 0.000000 0.000000 -0.000000 1.019410 92.167905 -0.000000 -0.000000 1.456275 -0.000000 77.256502 0.000000 -0.000000 0.000002 1.471446 -0.000006 -1.133465 -100.731766 0.625745 0.000000 0.917755 0.000006 109.757445 -0.000001 -0.629534 0.000001 0.940221 -0.000000 1.709734 102.990640 -0.000001 0.113772 1.960661 -88.303889 58.823802 -0.000001 -0.669733 -0.113771 0.388340 -1.382750 3.308880 -183.306226 
0.000000 0.000000 0.000000 -0.000000 1.019410 91.382870 -0.000000 -0.000000 1.456275 0.000000 76.215383 0.000000 -0.000000 0.000002 1.471446 -0.000006 -1.133464 -99.874113 0.625745 0.000001 0.917755 0.000004 109.972596 -0.000003 -0.629534 0.000001 0.940221 -0.000001 1.709737 102.113336 -0.000001 0.113772 1.960661 -88.303896 59.089162 -0.000005 -0.669733 -0.113770 0.388340 -1.378021 3.313057 -183.661533 
